<?xml version="1.0" encoding="utf-8"?>
<!-- Generator: Adobe Illustrator 22.0.0, SVG Export Plug-In . SVG Version: 6.00 Build 0)  -->
<svg version="1.1" id="Layer_1" xmlns="http://www.w3.org/2000/svg" xmlns:xlink="http://www.w3.org/1999/xlink" x="0px" y="0px"
	 viewBox="0 0 256 255" style="enable-background:new 0 0 256 255;" xml:space="preserve">
<style type="text/css">
	.st0{display:none;}
	.st1{display:inline;fill:url(#SVGID_1_);}
	.st2{display:inline;fill:#FFFFFF;}
	.st3{fill:url(#SVGID_2_);}
	.st4{fill:#FFFFFF;}
</style>
<g class="st0">
	<linearGradient id="SVGID_1_" gradientUnits="userSpaceOnUse" x1="211.0139" y1="270.7842" x2="44.9861" y2="-16.7842">
		<stop  offset="0" style="stop-color:#1759D7"/>
		<stop  offset="1" style="stop-color:#0984E3"/>
	</linearGradient>
	<circle class="st1" cx="128" cy="127" r="166"/>
</g>
<g class="st0">
	<path class="st2" d="M129.2,54.5c0,1.7,1.3,3,3,3c18.2,0,33.1,14.8,33.1,33.1v72.2h-27l30,41.2l30-41.2h-27V90.6
		c0-21.6-17.5-39.1-39.1-39.1C130.5,51.5,129.2,52.8,129.2,54.5z"/>
	<path class="st2" d="M126.2,198.9c0-1.7-1.3-3-3-3c-18.2,0-33.1-14.8-33.1-33.1V90.6h27l-30-41.2l-30,41.2h27v72.2
		c0,21.6,17.5,39.1,39.1,39.1C124.9,201.9,126.2,200.6,126.2,198.9z"/>
</g>
<linearGradient id="SVGID_2_" gradientUnits="userSpaceOnUse" x1="203.1576" y1="255.4448" x2="54.8424" y2="-1.4448">
	<stop  offset="0" style="stop-color:#1759D7"/>
	<stop  offset="1" style="stop-color:#0984E3"/>
</linearGradient>
<path class="st3" d="M201,249H57c-27.5,0-50-22.5-50-50V55C7,27.5,29.5,5,57,5h144c27.5,0,50,22.5,50,50v144
	C251,226.5,228.5,249,201,249z"/>
<g>
	<path class="st4" d="M193.8,149.4l-30.7,40c-0.3,0.4-0.8,0.6-1.3,0.6c-0.5,0-1-0.2-1.3-0.6l-30.7-40c-0.2-0.3-0.3-0.6-0.3-1
		c0-0.3,0.1-0.7,0.3-1c0.4-0.6,1.2-0.8,1.9-0.5l20.3,8V69.7c0-0.9,0.7-1.6,1.6-1.6H170c0.9,0,1.6,0.7,1.6,1.6v85.2l20.3-8
		c0.7-0.3,1.5,0,1.9,0.5C194.3,148,194.3,148.8,193.8,149.4z M128.7,106.1c0.2-0.3,0.3-0.6,0.3-1c0-0.3-0.1-0.7-0.3-1L98,64.1
		c-0.3-0.4-0.8-0.6-1.3-0.6c-0.5,0-1,0.2-1.3,0.6l-30.7,40c-0.4,0.6-0.5,1.4,0,2c0.4,0.6,1.2,0.8,1.9,0.5l20.4-8v85.2
		c0,0.9,0.7,1.6,1.6,1.6h16.3c0.9,0,1.6-0.7,1.6-1.6V98.6l20.4,8C127.5,106.9,128.3,106.7,128.7,106.1z"/>
</g>
</svg>
